<svg width="64" height="64" viewBox="0 0 64 64" fill="none" xmlns="http://www.w3.org/2000/svg">
<path d="M27.4001 21.8665C28.2001 22.9332 29.8001 22.9332 30.6001 21.8665L39.794 9.60798C41.0013 7.99816 39.2755 5.6283 37.3317 6.14847C34.6271 6.87218 31.5473 7.49984 29.0001 7.49984C26.4528 7.49984 23.373 6.87218 20.6685 6.14847C18.7246 5.6283 16.9988 7.99816 18.2062 9.60798L27.4001 21.8665Z" fill="#B5E0FF"/>
<path d="M51 44C51 60 41.1503 60 29 60C16.8497 60 7 60 7 44C7 35.1634 16.8497 18 29 18C41.1503 18 51 35.1634 51 44Z" fill="#B5E0FF"/>
<mask id="mask0" mask-type="alpha" maskUnits="userSpaceOnUse" x="17" y="6" width="24" height="17">
<path d="M27.4001 21.8665C28.2001 22.9332 29.8001 22.9332 30.6001 21.8665L39.794 9.60798C41.0013 7.99816 39.2755 5.6283 37.3317 6.14847C34.6271 6.87218 31.5473 7.49984 29.0001 7.49984C26.4528 7.49984 23.373 6.87218 20.6685 6.14847C18.7246 5.6283 16.9988 7.99816 18.2062 9.60798L27.4001 21.8665Z" fill="#70C3FF"/>
</mask>
<g mask="url(#mask0)">
<path d="M29 4H42V22H29V4Z" fill="#9CD6FF"/>
</g>
<mask id="mask1" mask-type="alpha" maskUnits="userSpaceOnUse" x="7" y="18" width="44" height="42">
<path d="M51 44C51 60 41.1503 60 29 60C16.8497 60 7 60 7 44C7 35.1634 16.8497 18 29 18C41.1503 18 51 35.1634 51 44Z" fill="#70C3FF"/>
</mask>
<g mask="url(#mask1)">
<path d="M29 18H51V62H29V18Z" fill="#9CD6FF"/>
</g>
<path d="M20 18C20 16.8954 20.8954 16 22 16H36C37.1046 16 38 16.8954 38 18C38 19.1046 37.1046 20 36 20H22C20.8954 20 20 19.1046 20 18Z" fill="#FFDC26"/>
<path d="M29 16H36C37.1046 16 38 16.8954 38 18C38 19.1046 37.1046 20 36 20H29V16Z" fill="#FCCC24"/>
<mask id="mask2" mask-type="alpha" maskUnits="userSpaceOnUse" x="39" y="40" width="18" height="20">
<path d="M39 58C39 56.8954 39.8954 56 41 56H55C56.1046 56 57 56.8954 57 58C57 59.1046 56.1046 60 55 60H41C39.8954 60 39 59.1046 39 58Z" fill="#FDC435"/>
<path d="M39 54C39 52.8954 39.8954 52 41 52H55C56.1046 52 57 52.8954 57 54C57 55.1046 56.1046 56 55 56H41C39.8954 56 39 55.1046 39 54Z" fill="#F2B10A"/>
<path d="M39 50C39 48.8954 39.8954 48 41 48H55C56.1046 48 57 48.8954 57 50C57 51.1046 56.1046 52 55 52H41C39.8954 52 39 51.1046 39 50Z" fill="#FDC435"/>
<path d="M39 46C39 44.8954 39.8954 44 41 44H55C56.1046 44 57 44.8954 57 46C57 47.1046 56.1046 48 55 48H41C39.8954 48 39 47.1046 39 46Z" fill="#F2B10A"/>
<path d="M39 42C39 40.8954 39.8954 40 41 40H55C56.1046 40 57 40.8954 57 42C57 43.1046 56.1046 44 55 44H41C39.8954 44 39 43.1046 39 42Z" fill="#FDC435"/>
</mask>
<g mask="url(#mask2)">
<path d="M39 58C39 56.8954 39.8954 56 41 56H55C56.1046 56 57 56.8954 57 58C57 59.1046 56.1046 60 55 60H41C39.8954 60 39 59.1046 39 58Z" fill="#FFDC26"/>
<path d="M39 54C39 52.8954 39.8954 52 41 52H55C56.1046 52 57 52.8954 57 54C57 55.1046 56.1046 56 55 56H41C39.8954 56 39 55.1046 39 54Z" fill="#FCCC24"/>
<path d="M39 50C39 48.8954 39.8954 48 41 48H55C56.1046 48 57 48.8954 57 50C57 51.1046 56.1046 52 55 52H41C39.8954 52 39 51.1046 39 50Z" fill="#FFDC26"/>
<path d="M39 46C39 44.8954 39.8954 44 41 44H55C56.1046 44 57 44.8954 57 46C57 47.1046 56.1046 48 55 48H41C39.8954 48 39 47.1046 39 46Z" fill="#FCCC24"/>
<path d="M39 42C39 40.8954 39.8954 40 41 40H55C56.1046 40 57 40.8954 57 42C57 43.1046 56.1046 44 55 44H41C39.8954 44 39 43.1046 39 42Z" fill="#FFDC26"/>
<path d="M48 40H57V44H48V40Z" fill="#FCCC24"/>
<path d="M48 44H57V48H48V44Z" fill="#E8BD28"/>
<path d="M48 48H57V52H48V48Z" fill="#FCCC24"/>
<path d="M48 52H57V56H48V52Z" fill="#E8BD28"/>
<path d="M48 56H57V60H48V56Z" fill="#FCCC24"/>
</g>
<path d="M26.9999 27C26.9999 25.8954 27.8954 25 28.9999 25C30.1045 25 30.9999 25.8954 30.9999 27V29C30.9999 29.1085 30.9913 29.2149 30.9747 29.3187C33.3062 30.1244 34.3559 32.2352 34.7531 33.0338L34.7888 33.1056C35.2828 34.0935 34.8823 35.2949 33.8944 35.7889C32.9064 36.2828 31.7051 35.8824 31.2111 34.8944C30.6671 33.8064 30.1579 33 29 33C28.151 33 27.7065 33.2468 27.4767 33.4767C27.2468 33.7066 27 34.151 27 35C27 35.5903 27.1811 35.8426 27.4914 36.0882C27.9482 36.4498 28.626 36.7238 29.7022 37.1273L29.8179 37.1707C30.734 37.5134 31.991 37.9837 32.9914 38.7757C34.1811 39.7176 35 41.0903 35 43C35 44.651 34.4968 46.2066 33.3517 47.3517C32.6813 48.022 31.8704 48.4724 30.9819 48.7306C30.9938 48.8187 30.9999 48.9086 30.9999 49V51C30.9999 52.1046 30.1045 53 28.9999 53C27.8954 53 26.9999 52.1046 26.9999 51V49C26.9999 48.8915 27.0086 48.7851 27.0252 48.6813C24.6937 47.8756 23.644 45.7648 23.2468 44.9662L23.2111 44.8944C22.7171 43.9065 23.1176 42.7051 24.1055 42.2111C25.0935 41.7172 26.2948 42.1176 26.7888 43.1056C27.3328 44.1936 27.842 45 29 45C29.8489 45 30.2934 44.7532 30.5232 44.5233C30.7531 44.2934 31 43.849 31 43C31 42.4097 30.8187 42.1574 30.5085 41.9118C30.0517 41.5502 29.3739 41.2762 28.2977 40.8727L28.182 40.8293C27.2659 40.4866 26.0089 40.0163 25.0085 39.2243C23.8188 38.2824 23 36.9097 23 35C23 33.349 23.5031 31.7934 24.6482 30.6483C25.3186 29.978 26.1295 29.5276 27.0179 29.2694C27.0061 29.1813 26.9999 29.0914 26.9999 29V27Z" fill="#70C3FF"/>
<mask id="mask3" mask-type="alpha" maskUnits="userSpaceOnUse" x="22" y="25" width="14" height="28">
<path d="M26.9999 27C26.9999 25.8954 27.8954 25 28.9999 25C30.1045 25 30.9999 25.8954 30.9999 27V29C30.9999 29.1085 30.9913 29.2149 30.9747 29.3187C33.3062 30.1244 34.3559 32.2352 34.7531 33.0338L34.7888 33.1056C35.2828 34.0935 34.8823 35.2949 33.8944 35.7889C32.9064 36.2828 31.7051 35.8824 31.2111 34.8944C30.6671 33.8064 30.1579 33 29 33C28.151 33 27.7065 33.2468 27.4767 33.4767C27.2468 33.7066 27 34.151 27 35C27 35.5903 27.1811 35.8426 27.4914 36.0882C27.9482 36.4498 28.626 36.7238 29.7022 37.1273L29.8179 37.1707C30.734 37.5134 31.991 37.9837 32.9914 38.7757C34.1811 39.7176 35 41.0903 35 43C35 44.651 34.4968 46.2066 33.3517 47.3517C32.6813 48.022 31.8704 48.4724 30.9819 48.7306C30.9938 48.8187 30.9999 48.9086 30.9999 49V51C30.9999 52.1046 30.1045 53 28.9999 53C27.8954 53 26.9999 52.1046 26.9999 51V49C26.9999 48.8915 27.0086 48.7851 27.0252 48.6813C24.6937 47.8756 23.644 45.7648 23.2468 44.9662L23.2111 44.8944C22.7171 43.9065 23.1176 42.7051 24.1055 42.2111C25.0935 41.7172 26.2948 42.1176 26.7888 43.1056C27.3328 44.1936 27.842 45 29 45C29.8489 45 30.2934 44.7532 30.5232 44.5233C30.7531 44.2934 31 43.849 31 43C31 42.4097 30.8187 42.1574 30.5085 41.9118C30.0517 41.5502 29.3739 41.2762 28.2977 40.8727L28.182 40.8293C27.2659 40.4866 26.0089 40.0163 25.0085 39.2243C23.8188 38.2824 23 36.9097 23 35C23 33.349 23.5031 31.7934 24.6482 30.6483C25.3186 29.978 26.1295 29.5276 27.0179 29.2694C27.0061 29.1813 26.9999 29.0914 26.9999 29V27Z" fill="#FFDC26"/>
</mask>
<g mask="url(#mask3)">
<path d="M29 25H35V54H29V25Z" fill="#48A7FF"/>
</g>
</svg>
