<svg width="64" height="64" viewBox="0 0 64 64" fill="none" xmlns="http://www.w3.org/2000/svg">
<path d="M10 13C10 11.8954 10.8954 11 12 11H50C51.1046 11 52 11.8954 52 13V57C52 58.1046 51.1046 59 50 59H12C10.8954 59 10 58.1046 10 57V13Z" fill="#C9EBFF"/>
<path d="M31 11H48C50.2091 11 52 12.7909 52 15V55C52 57.2091 50.2091 59 48 59H31V11Z" fill="#B5E0FF"/>
<path d="M18 20.5C18 19.6716 18.6716 19 19.5 19H37.5C38.3284 19 39 19.6716 39 20.5C39 21.3284 38.3284 22 37.5 22H19.5C18.6716 22 18 21.3284 18 20.5Z" fill="#70C3FF"/>
<path d="M18 26.5C18 25.6716 18.6716 25 19.5 25H37.5C38.3284 25 39 25.6716 39 26.5C39 27.3284 38.3284 28 37.5 28H19.5C18.6716 28 18 27.3284 18 26.5Z" fill="#70C3FF"/>
<path d="M18 32.5C18 31.6716 18.6716 31 19.5 31H24.5C25.3284 31 26 31.6716 26 32.5C26 33.3284 25.3284 34 24.5 34H19.5C18.6716 34 18 33.3284 18 32.5Z" fill="#70C3FF"/>
<path d="M18 45.5C18 44.6716 18.6716 44 19.5 44H27.5C28.3284 44 29 44.6716 29 45.5C29 46.3284 28.3284 47 27.5 47H19.5C18.6716 47 18 46.3284 18 45.5Z" fill="#70C3FF"/>
<path d="M18 51.5C18 50.6716 18.6716 50 19.5 50H24.5C25.3284 50 26 50.6716 26 51.5C26 52.3284 25.3284 53 24.5 53H19.5C18.6716 53 18 52.3284 18 51.5Z" fill="#70C3FF"/>
<path d="M44.1403 53C43.5242 53 42.9861 52.5831 42.8322 51.9865L42.7723 51.7541C42.6777 51.3874 42.3469 51.1311 41.9682 51.1311H40.0605C39.6805 51.1311 39.3481 51.3868 39.2507 51.7541L39.1892 51.9856C39.0306 52.5836 38.4893 53 37.8706 53C36.9458 53 36.289 52.0994 36.5716 51.2189L38.7636 44.3888C39.0292 43.5613 39.7988 43 40.668 43H41.2964C42.1628 43 42.9306 43.5578 43.1984 44.3817L45.4251 51.2314C45.7088 52.1043 45.0582 53 44.1403 53ZM41.4129 48.9275C41.7405 48.9275 41.9796 48.6178 41.8966 48.3009L41.6336 47.2957C41.5877 47.119 41.5234 46.868 41.4408 46.5425C41.5234 46.8959 41.3581 46.2078 41.4408 46.5425C41.4359 46.5218 41.4303 46.4977 41.4239 46.4707C41.3361 46.0963 40.679 46.0994 40.5868 46.4728C40.6694 46.1474 40.5133 46.8075 40.5868 46.4728C40.5133 46.7982 40.449 47.0725 40.3939 47.2957L40.1309 48.3009C40.048 48.6178 40.287 48.9275 40.6146 48.9275H41.4129Z" fill="#48A7FF"/>
<path d="M21 11C21 7.68629 23.6863 5 27 5H31V13H23C21.8954 13 21 12.1046 21 11Z" fill="#70C3FF"/>
<path d="M31 5H35C38.3137 5 41 7.68629 41 11C41 12.1046 40.1046 13 39 13H31V5Z" fill="#48A7FF"/>
<path d="M62 25C62 30.5228 57.5228 35 52 35C46.4772 35 42 30.5228 42 25C42 19.4772 46.4772 15 52 15C57.5228 15 62 19.4772 62 25Z" fill="#FFDC26"/>
<path fill-rule="evenodd" clip-rule="evenodd" d="M57.5607 20.9393C58.1464 21.5251 58.1464 22.4749 57.5607 23.0607L51.7678 28.8536C50.7915 29.8299 49.2085 29.8299 48.2322 28.8536L45.9393 26.5607C45.3536 25.9749 45.3536 25.0251 45.9393 24.4393C46.5251 23.8536 47.4749 23.8536 48.0607 24.4393L50 26.3787L55.4393 20.9393C56.0251 20.3536 56.9749 20.3536 57.5607 20.9393Z" fill="white"/>
</svg>
