<svg width="24" height="24" viewBox="0 0 24 24" fill="none" xmlns="http://www.w3.org/2000/svg">
<path fill-rule="evenodd" clip-rule="evenodd" d="M12 19C15.866 19 19 15.866 19 12C19 8.13401 15.866 5 12 5C8.13401 5 5 8.13401 5 12C5 15.866 8.13401 19 12 19ZM9.52517 9.52513C9.79853 9.25176 10.2417 9.25176 10.5151 9.52513L12 11.0101L13.485 9.52513C13.7583 9.25176 14.2015 9.25176 14.4749 9.52513C14.7483 9.79849 14.7483 10.2417 14.4749 10.5151L12.99 12L14.4749 13.4849C14.7483 13.7583 14.7483 14.2015 14.4749 14.4749C14.2015 14.7482 13.7583 14.7482 13.485 14.4749L12 12.9899L10.5151 14.4749C10.2417 14.7482 9.79853 14.7482 9.52517 14.4749C9.2518 14.2015 9.2518 13.7583 9.52517 13.4849L11.0101 12L9.52517 10.5151C9.2518 10.2417 9.2518 9.79849 9.52517 9.52513Z" fill="#63696D"/>
</svg>
