<svg width="24" height="24" viewBox="0 0 24 24" fill="none" xmlns="http://www.w3.org/2000/svg">
    <path fill-rule="evenodd" clip-rule="evenodd"
        d="M13 10C13 11.6569 11.6569 13 10 13C8.34315 13 7 11.6569 7 10C7 8.34315 8.34315 7 10 7C11.6569 7 13 8.34315 13 10ZM15 10C15 12.7614 12.7614 15 10 15C7.23858 15 5 12.7614 5 10C5 7.23858 7.23858 5 10 5C12.7614 5 15 7.23858 15 10ZM15.982 14.5677C15.5915 14.1772 14.9583 14.1772 14.5678 14.5677C14.1773 14.9582 14.1773 15.5914 14.5678 15.9819L16.9897 18.4038C17.3802 18.7943 18.0133 18.7943 18.4039 18.4038C18.7944 18.0132 18.7944 17.3801 18.4039 16.9896L15.982 14.5677Z"
        fill="#868D93" />
</svg>
