<svg width="60" height="60" viewBox="0 0 60 60" fill="none" xmlns="http://www.w3.org/2000/svg">
<path d="M6.36814 25.6135V58.1947H30L32.6017 29.0711L30 2.4856L6.36814 25.6135Z" fill="#C9EBFF"/>
<path d="M53.6972 25.6135L30.202 2.2879L30 2.4856V58.1947H53.6972V25.6135Z" fill="#B5E0FF"/>
<path d="M7.15915 23.6401V6.6984C7.15915 5.59383 8.05458 4.69839 9.15915 4.69839H15.0766C16.1812 4.69839 17.0766 5.59383 17.0766 6.69839V14.9009L7.15915 23.6401Z" fill="#48A7FF"/>
<path d="M1.24327 28.7911C0.558272 29.4769 0.558603 30.5881 1.24401 31.2735C1.93003 31.9595 3.04239 31.9592 3.72796 31.2727L30 4.96652L31.2857 3.13934L30 0L1.24327 28.7911Z" fill="#9CD5FF"/>
<path d="M58.7545 31.2034C59.4405 30.5173 59.4402 29.405 58.7537 28.7193L30 0V4.96652L56.272 31.2042C56.9579 31.8891 58.069 31.8888 58.7545 31.2034Z" fill="#70C3FF"/>
<path d="M22.482 36.7663C22.4702 36.7663 22.4585 36.7666 22.4466 36.7668C18.325 36.7859 14.9778 40.1446 14.9778 44.2705V46.376L30.0001 46.479V44.2706C30.0001 40.1327 26.6199 36.7663 22.482 36.7663Z" fill="#48A7FF"/>
<path d="M22.4468 30.3908C22.4466 30.3908 22.4466 30.3908 22.4468 30.3908C20.3874 30.3908 18.7121 32.0662 18.7121 34.1255C18.7121 36.1848 20.3874 37.8601 22.4468 37.8601C24.506 37.8601 26.1814 36.1848 26.1814 34.1255C26.1814 32.0662 24.506 30.3908 22.4468 30.3908Z" fill="#FFE3C1"/>
<path d="M44.2143 48.9598H30V40.1553C30 39.0507 30.8954 38.1553 32 38.1553H42.2143C43.3188 38.1553 44.2143 39.0507 44.2143 40.1553V48.9598Z" fill="#B6DCFE"/>
<path d="M13.9929 45.4482C12.8883 45.4482 11.9929 46.3436 11.9929 47.4482V58.3774H30L32.7643 52.3385L30 45.4482H13.9929Z" fill="#FFDC26"/>
<path d="M30 45.4482H46.0724C47.177 45.4482 48.0724 46.3436 48.0724 47.4482V58.3774H30V45.4482Z" fill="#FCCC24"/>
<path d="M1.75781 56.4844C0.786999 56.4844 0 57.2714 0 58.2422C0 59.213 0.786999 60 1.75781 60H30L31.2083 58.3314L30 56.4844H1.75781Z" fill="#9CD5FF"/>
<path d="M30 56.4844H58.2422C59.213 56.4844 60 57.2714 60 58.2422C60 59.213 59.213 60 58.2422 60H30V56.4844Z" fill="#70C3FF"/>
</svg>
