<svg width="64" height="64" viewBox="0 0 64 64" fill="none" xmlns="http://www.w3.org/2000/svg">
<path d="M24 6C24 4.89543 24.8954 4 26 4H58C59.1046 4 60 4.89543 60 6V53C60 56.866 56.866 60 53 60H28C25.7909 60 24 58.2091 24 56V6Z" fill="#C9EBFF"/>
<path d="M50 4H58C59 4 60 5 60 6.00001V53C60 56.866 56.866 60 53 60H43C43 58.8954 43.8954 58 45 58H45.5455C48.0056 58 50 56.0056 50 53.5455V4Z" fill="#B5E0FF"/>
<path d="M38 23.5C38 22.6716 38.6716 22 39.5 22H53.5C54.3284 22 55 22.6716 55 23.5C55 24.3284 54.3284 25 53.5 25H39.5C38.6716 25 38 24.3284 38 23.5Z" fill="#70C3FF"/>
<path d="M38 18.5C38 17.6716 38.6716 17 39.5 17H42.5C43.3284 17 44 17.6716 44 18.5C44 19.3284 43.3284 20 42.5 20H39.5C38.6716 20 38 19.3284 38 18.5Z" fill="#70C3FF"/>
<path d="M29 10C29 9.44772 29.4477 9 30 9H54C54.5523 9 55 9.44772 55 10V13C55 13.5523 54.5523 14 54 14H30C29.4477 14 29 13.5523 29 13V10Z" fill="#70C3FF"/>
<path d="M29 21C29 19.3431 30.3431 18 32 18C33.6569 18 35 19.3431 35 21C35 22.6569 33.6569 24 32 24C30.3431 24 29 22.6569 29 21Z" fill="#FCCC24"/>
<path d="M38 33.5C38 32.6716 38.6716 32 39.5 32H53.5C54.3284 32 55 32.6716 55 33.5C55 34.3284 54.3284 35 53.5 35H39.5C38.6716 35 38 34.3284 38 33.5Z" fill="#70C3FF"/>
<path d="M38 28.5C38 27.6716 38.6716 27 39.5 27H42.5C43.3284 27 44 27.6716 44 28.5C44 29.3284 43.3284 30 42.5 30H39.5C38.6716 30 38 29.3284 38 28.5Z" fill="#70C3FF"/>
<path d="M29 31C29 29.3431 30.3431 28 32 28C33.6569 28 35 29.3431 35 31C35 32.6569 33.6569 34 32 34C30.3431 34 29 32.6569 29 31Z" fill="#FCCC24"/>
<path d="M38 43.5C38 42.6716 38.6716 42 39.5 42H53.5C54.3284 42 55 42.6716 55 43.5C55 44.3284 54.3284 45 53.5 45H39.5C38.6716 45 38 44.3284 38 43.5Z" fill="#70C3FF"/>
<path d="M38 38.5C38 37.6716 38.6716 37 39.5 37H42.5C43.3284 37 44 37.6716 44 38.5C44 39.3284 43.3284 40 42.5 40H39.5C38.6716 40 38 39.3284 38 38.5Z" fill="#70C3FF"/>
<path d="M29 41C29 39.3431 30.3431 38 32 38C33.6569 38 35 39.3431 35 41C35 42.6569 33.6569 44 32 44C30.3431 44 29 42.6569 29 41Z" fill="#70C3FF"/>
<mask id="mask0" mask-type="alpha" maskUnits="userSpaceOnUse" x="4" y="4" width="30" height="30">
<path d="M10.2069 5.03443C9.63557 4.4631 8.70926 4.4631 8.13793 5.03443L5.03448 8.13788C4.46315 8.70921 4.46315 9.63552 5.03448 10.2068L23.4631 28.6355C23.5901 28.7624 23.7393 28.8649 23.9034 28.9379L29.4896 31.4206C30.7139 31.9647 31.9648 30.7138 31.4207 29.4896L28.9379 23.9034C28.865 23.7393 28.7625 23.59 28.6355 23.4631L10.2069 5.03443Z" fill="#C4C4C4"/>
</mask>
<g mask="url(#mask0)">
<path d="M4 9.17236L6.58621 6.58615L10.7241 10.7241L8.13793 13.3103L4 9.17236Z" fill="#70C3FF"/>
<path d="M6.58618 6.58618L9.17239 3.99997L13.3103 8.13791L10.7241 10.7241L6.58618 6.58618Z" fill="#48A7FF"/>
<path d="M8.13794 13.3103L10.7241 10.7241L26.2414 26.2413L23.6552 28.8276L8.13794 13.3103Z" fill="#FFDC26"/>
<path d="M10.7241 10.7241L13.3103 8.13791L28.8276 23.6552L26.2414 26.2414L10.7241 10.7241Z" fill="#FCCC24"/>
<path d="M23.6552 28.8276L26.2414 26.2414L31.4138 31.4138L28.8276 34.0001L23.6552 28.8276Z" fill="#FFF0DE"/>
<path d="M26.2413 26.2415L28.8275 23.6552L34 28.8277L31.4138 31.4139L26.2413 26.2415Z" fill="#F5DAB9"/>
</g>
<path d="M10 49C8.89543 49 8 49.8954 8 51V53C8 56.866 11.134 60 15 60H53C49 60 46 56.866 46 53C46 52.1744 46 51.5191 46 50.9988C46 49.8942 45.1045 49 43.9999 49H10Z" fill="#9CD6FF"/>
</svg>
