<svg width="64" height="64" viewBox="0 0 64 64" fill="none" xmlns="http://www.w3.org/2000/svg">
<rect width="64" height="64" fill="white"/>
<g clip-path="url(#clip0)">
<path fill-rule="evenodd" clip-rule="evenodd" d="M55 35H46V41H51L51 49H55C56.1046 49 57 48.1046 57 47L57 41L57 38L57 37C57 35.8954 56.1046 35 55 35Z" fill="#B5E0FF"/>
<path d="M34.3635 11.9818L34.1545 12.0055C33.9457 12.0291 32.06 12.2855 30.2192 13.973C28.6162 15.4424 26.7054 18.3536 26.7054 23.878V30.2317H39.5861V11.9818H34.3635Z" fill="#C9EBFF"/>
<path d="M37.2948 13.1239H40.7961V28.1121H37.2948V13.1239Z" fill="#B5E0FF"/>
<path d="M37.2948 2C33.4021 2 30.2351 5.16695 30.2351 9.05964C30.2351 12.9523 33.4021 16.1193 37.2948 16.1193L39.114 8.73078L37.2948 2Z" fill="#FFE3C1"/>
<path d="M37.2948 16.1193C41.1875 16.1193 44.3544 12.9523 44.3544 9.05964C44.3544 5.16695 41.1875 2 37.2948 2V16.1193Z" fill="#F1D0A4"/>
<path d="M19.6457 28.4667V44.3509H37.2948L47.8843 40.8211V28.4667H19.6457Z" fill="#FFDC26"/>
<path d="M37.2948 28.4667V42.6038L47.8842 40.8211V30.3418L37.2948 28.4667Z" fill="#FCCC24"/>
<path d="M23.1754 30.3417H47.8841V28.7018C47.8841 27.5972 46.9887 26.7018 45.8841 26.7018H23.1754L21.6322 28.4223L23.1754 30.3417Z" fill="#FCCC24"/>
<path d="M37.2948 26.7018H45.8842C46.9888 26.7018 47.8842 27.5972 47.8842 28.7018V30.3417H37.2948V26.7018Z" fill="#E8BD28"/>
<path d="M20 17.5C20 16.6716 20.6716 16 21.5 16C22.3284 16 23 16.6716 23 17.5V26.5C23 27.3284 22.3284 28 21.5 28C20.6716 28 20 27.3284 20 26.5V17.5Z" fill="#70C3FF"/>
<path d="M21.4105 15.9982V28.4667H19.6456V19.528H15.5275C14.5527 19.528 13.7626 18.7378 13.7626 17.7631C13.7626 16.7883 14.5527 15.9982 15.5275 15.9982H21.4105Z" fill="#9CD5FF"/>
<path d="M21.4106 60.2351C30.1832 60.2351 37.2948 53.1235 37.2948 44.3509C37.2948 35.5783 30.1832 28.4667 21.4106 28.4667C12.638 28.4667 5.52638 35.5783 5.52638 44.3509C5.52638 53.1235 12.638 60.2351 21.4106 60.2351Z" fill="#C9EBFF"/>
<path d="M21.4105 28.4669C30.183 28.4669 37.2947 35.5785 37.2947 44.351C37.2947 53.1236 30.183 60.2352 21.4105 60.2352V28.4669Z" fill="#B5E0FF"/>
<path d="M21.4106 62C11.6788 62 3.76145 54.0826 3.76145 44.3509C3.76145 34.6192 11.6788 26.7018 21.4106 26.7018C31.1423 26.7018 39.0597 34.6192 39.0597 44.3509C39.0597 54.0826 31.1423 62 21.4106 62ZM21.4106 30.2316C13.6252 30.2316 7.29127 36.5655 7.29127 44.3509C7.29127 52.1363 13.6252 58.4702 21.4106 58.4702C29.1959 58.4702 35.5298 52.1363 35.5298 44.3509C35.5298 36.5655 29.1959 30.2316 21.4106 30.2316Z" fill="#9CD5FF"/>
<path d="M21.4106 49.6456C24.3348 49.6456 26.7053 47.2751 26.7053 44.3509C26.7053 41.4267 24.3348 39.0562 21.4106 39.0562C18.4864 39.0562 16.1158 41.4267 16.1158 44.3509C16.1158 47.2751 18.4864 49.6456 21.4106 49.6456Z" fill="#9CD5FF"/>
<path d="M21.4105 39.0562C24.3347 39.0562 26.7052 41.4267 26.7052 44.3509C26.7052 47.2751 24.3347 49.6456 21.4105 49.6456V39.0562Z" fill="#70C3FF"/>
<path d="M38.7047 40.8211C37.065 32.775 29.9337 26.7018 21.4105 26.7018V30.2316C29.1959 30.2316 35.5298 36.5655 35.5298 44.3509C35.5298 52.1363 29.1959 58.4702 21.4105 58.4702V62C31.1422 62 39.0596 54.0826 39.0596 44.3509H47.8841V48.0574L49.6491 49.6456L51.414 48.104V42.8211C51.414 41.7165 50.5185 40.8211 49.414 40.8211H38.7047Z" fill="#70C3FF"/>
<path d="M60.2385 55.0616C60.2385 56.0363 59.4484 56.8265 58.4736 56.8265H56.4525L54.9438 55.0616L56.5151 53.2967H58.4736C59.4484 53.2967 60.2385 54.0869 60.2385 55.0616Z" fill="#70C3FF"/>
<path d="M49.6491 47.8807V40.8246C50.6239 40.8246 51.4141 41.6148 51.4141 42.5895V48.1041L49.6356 49.8826L49.6491 47.8807Z" fill="#48A7FF"/>
<path d="M49.6491 60.6363C52.7949 60.6363 55.3451 58.0861 55.3451 54.9403C55.3451 51.7946 52.7949 49.2444 49.6491 49.2444C46.5034 49.2444 43.9532 51.7946 43.9532 54.9403C43.9532 58.0861 46.5034 60.6363 49.6491 60.6363Z" fill="#C9EBFF"/>
<path d="M49.6491 60.6364C52.7899 60.6364 55.3451 58.0812 55.3451 54.9405C55.3451 51.7997 52.7899 49.2445 49.6491 49.2445V60.6364Z" fill="#B5E0FF"/>
<path d="M49.6491 47.8807V51.4105C51.5955 51.4105 53.179 52.994 53.179 54.9403C53.179 56.8867 51.5955 58.4702 49.6491 58.4702V62C53.5418 62 56.7088 58.833 56.7088 54.9403C56.7088 51.0476 53.5418 47.8807 49.6491 47.8807Z" fill="#70C3FF"/>
<path d="M49.6491 51.4105V47.8807C45.7564 47.8807 42.5894 51.0476 42.5894 54.9403C42.5894 58.833 45.7564 62 49.6491 62V58.4702C47.7027 58.4702 46.1192 56.8867 46.1192 54.9403C46.1192 52.994 47.7027 51.4105 49.6491 51.4105Z" fill="#9CD5FF"/>
</g>
<defs>
<clipPath id="clip0">
<rect width="60" height="60" fill="white" transform="translate(2 2)"/>
</clipPath>
</defs>
</svg>
