<svg width="64" height="64" viewBox="0 0 64 64" fill="none" xmlns="http://www.w3.org/2000/svg">
<g clip-path="url(#clip0)">
<mask id="mask0" mask-type="alpha" maskUnits="userSpaceOnUse" x="4" y="2" width="56" height="60">
<path d="M38.1941 16.224C38.1941 16.224 40.117 20.4955 40.6391 21.9109C41.2365 23.4679 41.2088 23.8925 41.2088 24.7418C41.2088 25.4212 39.7847 26.865 39.7847 26.865L37.2214 28.8466C37.2214 28.8466 34.0885 30.9698 31.3828 32.5268C27.5379 35.2161 31.3828 35.7823 32.9493 34.933C34.088 34.3156 34.7363 33.4846 36.0822 32.9514C37.9334 32.218 38.0759 33.376 37.5062 34.5084L34.3733 39.3209C34.3733 39.3209 31.6676 42.718 30.6708 44.558C29.3044 47.0803 31.5252 47.1058 32.6645 45.8319L34.9429 43.001C34.9429 43.001 36.4524 41.2176 37.9334 39.7455C39.4145 38.2735 39.4999 39.604 38.7879 40.5948L36.5094 44.558C36.5094 44.558 35.0854 46.6812 34.3733 48.2382C33.8037 50.2198 35.3702 50.3614 36.2246 49.3706L38.2183 46.2566C38.2183 46.2566 39.329 44.1051 40.9239 41.7271C42.5189 39.3492 42.348 41.5856 41.9208 42.5764C41.3512 43.6144 40.3258 46.3698 39.6423 48.5213C38.9588 50.6728 40.4967 50.3614 41.636 48.6628L43.6296 44.558C43.6296 44.558 44.6265 42.5764 45.1961 40.8779C45.7657 39.1793 46.7625 39.7448 46.7625 40.8779C46.7625 42.2933 46.8765 44.3599 46.1929 45.8319C45.3385 47.672 47.0473 48.5213 47.9018 47.3889C49.1549 45.4639 49.4682 42.9067 49.4682 41.8687C49.4208 41.161 49.4113 39.5757 49.753 38.8963C51.0062 36.4051 51.0347 29.2712 51.0347 29.2712C51.0347 29.2712 52.0315 24.572 54.31 21.0616C57.2609 16.5153 59.1517 20.448 59.1517 23.6095C59.1517 26.7234 58.2498 30.9226 57.8701 32.6683C57.4429 34.2253 57.3771 37.1522 57.0157 39.4624C56.0997 45.3178 55.4492 49.3706 53.8828 52.7676C52.6296 55.4853 49.041 56.9196 47.617 57.014C45.7657 57.4386 45.6233 56.9573 42.7752 59.5618C39.2151 62.8173 36.6518 62.1096 33.8037 61.4018C31.5252 60.8357 28.4873 57.2027 27.2531 55.457L20.8449 45.9735L18.424 43.001L11.3038 38.047C11.3038 38.047 6.74683 35.1029 4.46836 31.819C2.98735 27.8558 5.37025 27.9973 6.74683 28.5635C7.79113 29.2241 11.3038 32.3852 11.3038 32.3852L15.2911 34.933C15.2911 34.933 18.2251 36.4345 20.1329 37.3393C22.1265 38.2847 22.8386 36.2069 22.1265 35.2161C20.9873 33.8573 16.2879 27.7142 16.2879 27.7142L11.731 21.3447C11.731 21.3447 9.56644 18.6837 8.8829 17.0984C7.17404 13.1352 10.0221 12.4679 12.1582 13.9844C13.4873 14.9281 16.2879 19.08 16.2879 19.08L20.4177 24.0341C20.4177 24.0341 23.1356 27.9684 25.4018 29.979C26.0607 30.5635 27.3006 29.7902 26.9683 28.8466L22.8386 22.194L20.1329 17.0984C20.1329 17.0984 18.1962 13.5881 15.5759 9.17192C13.5823 4.64249 18.7088 6.05794 19.5633 6.62412C20.4177 7.19029 22.7838 10.6075 24.6898 13.2767C26.6892 16.0767 29.5316 20.637 29.5316 20.637C29.5316 20.637 31.1616 23.3232 32.2373 25.0249C32.9493 26.1513 34.943 25.4495 34.3733 24.1756L31.2404 15.2583C30.9556 14.126 28.3069 8.43589 27.3955 6.05794C26.2563 3.0855 28.962 1.10386 31.2404 3.51012C33.0632 5.43513 34.8005 9.59654 34.8005 9.59654L38.1941 16.224Z" fill="#B5E0FF"/>
</mask>
<g mask="url(#mask0)">
<path d="M38.1941 16.224C38.1941 16.224 40.117 20.4955 40.6391 21.9109C41.2365 23.4679 41.2088 23.8925 41.2088 24.7418C41.2088 25.4212 39.7847 26.865 39.7847 26.865L37.2214 28.8466C37.2214 28.8466 34.0885 30.9698 31.3828 32.5268C27.5379 35.2161 31.3828 35.7823 32.9493 34.933C34.088 34.3156 34.7363 33.4846 36.0822 32.9514C37.9334 32.218 38.0759 33.376 37.5062 34.5084L34.3733 39.3209C34.3733 39.3209 31.6676 42.718 30.6708 44.558C29.3044 47.0803 31.5252 47.1058 32.6645 45.8319L34.9429 43.001C34.9429 43.001 36.4524 41.2176 37.9334 39.7455C39.4145 38.2735 39.4999 39.604 38.7879 40.5948L36.5094 44.558C36.5094 44.558 35.0854 46.6812 34.3733 48.2382C33.8037 50.2198 35.3702 50.3614 36.2246 49.3706L38.2183 46.2566C38.2183 46.2566 39.329 44.1051 40.9239 41.7271C42.5189 39.3492 42.348 41.5856 41.9208 42.5764C41.3512 43.6144 40.3258 46.3698 39.6423 48.5213C38.9588 50.6728 40.4967 50.3614 41.636 48.6628L43.6296 44.558C43.6296 44.558 44.6265 42.5764 45.1961 40.8779C45.7657 39.1793 46.7625 39.7448 46.7625 40.8779C46.7625 42.2933 46.8765 44.3599 46.1929 45.8319C45.3385 47.672 47.0473 48.5213 47.9018 47.3889C49.1549 45.4639 49.4682 42.9067 49.4682 41.8687C49.4208 41.161 49.4113 39.5757 49.753 38.8963C51.0062 36.4051 51.0347 29.2712 51.0347 29.2712C51.0347 29.2712 52.0315 24.572 54.31 21.0616C57.2609 16.5153 59.1517 20.448 59.1517 23.6095C59.1517 26.7234 58.2498 30.9226 57.8701 32.6683C57.4429 34.2253 57.3771 37.1522 57.0157 39.4624C56.0997 45.3178 55.4492 49.3706 53.8828 52.7676C52.6296 55.4853 49.041 56.9196 47.617 57.014C45.7657 57.4386 45.6233 56.9573 42.7752 59.5618C39.2151 62.8173 36.6518 62.1096 33.8037 61.4018C31.5252 60.8357 28.4873 57.2027 27.2531 55.457L20.8449 45.9735L18.424 43.001L11.3038 38.047C11.3038 38.047 6.74683 35.1029 4.46836 31.819C2.98735 27.8558 5.37025 27.9973 6.74683 28.5635C7.79113 29.2241 11.3038 32.3852 11.3038 32.3852L15.2911 34.933C15.2911 34.933 18.2251 36.4345 20.1329 37.3393C22.1265 38.2847 22.8386 36.2069 22.1265 35.2161C20.9873 33.8573 16.2879 27.7142 16.2879 27.7142L11.731 21.3447C11.731 21.3447 9.56644 18.6837 8.8829 17.0984C7.17404 13.1352 10.0221 12.4679 12.1582 13.9844C13.4873 14.9281 16.2879 19.08 16.2879 19.08L20.4177 24.0341C20.4177 24.0341 23.1356 27.9684 25.4018 29.979C26.0607 30.5635 27.3006 29.7902 26.9683 28.8466L22.8386 22.194L20.1329 17.0984C20.1329 17.0984 18.1962 13.5881 15.5759 9.17192C13.5823 4.64249 18.7088 6.05794 19.5633 6.62412C20.4177 7.19029 22.7838 10.6075 24.6898 13.2767C26.6892 16.0767 29.5316 20.637 29.5316 20.637C29.5316 20.637 31.1616 23.3232 32.2373 25.0249C32.9493 26.1513 34.943 25.4495 34.3733 24.1756L31.2404 15.2583C30.9556 14.126 28.3069 8.43589 27.3955 6.05794C26.2563 3.0855 28.962 1.10386 31.2404 3.51012C33.0632 5.43513 34.8005 9.59654 34.8005 9.59654L38.1941 16.224Z" fill="#B5E0FF"/>
<path d="M31.5759 2.4361V60.4595V62H59.1517V2.4361H31.5759Z" fill="#9CD5FF"/>
</g>
<mask id="mask1" mask-type="alpha" maskUnits="userSpaceOnUse" x="40" y="5" width="16" height="15">
<path d="M45.4295 6.09675C43.3093 5.84662 41.3875 7.36282 41.1374 9.48259C40.7241 12.9864 47.1171 18.459 47.1171 18.459C47.1171 18.459 54.5881 14.7921 55.0213 11.1205C55.3327 8.48134 53.7552 7.079 51.6354 6.82891C50.3585 6.67827 49.1567 7.1714 48.3454 8.0478C47.7603 7.00666 46.706 6.24736 45.4295 6.09675Z" fill="#FFDC26"/>
</mask>
<g mask="url(#mask1)">
<path d="M45.4295 6.09675C43.3093 5.84662 41.3875 7.36282 41.1374 9.48259C40.7241 12.9864 47.1171 18.459 47.1171 18.459C47.1171 18.459 54.5881 14.7921 55.0213 11.1205C55.3327 8.48134 53.7552 7.079 51.6354 6.82891C50.3585 6.67827 49.1567 7.1714 48.3454 8.0478C47.7603 7.00666 46.706 6.24736 45.4295 6.09675Z" fill="#FFDC26"/>
<path d="M48.9761 4.14743L47.2208 18.544L54.5713 20.1707L58.5738 5.31764L48.9761 4.14743Z" fill="#FCCC24"/>
</g>
</g>
<defs>
<clipPath id="clip0">
<rect width="60" height="60" fill="white" transform="translate(2 2)"/>
</clipPath>
</defs>
</svg>
