<svg width="64" height="64" viewBox="0 0 64 64" fill="none" xmlns="http://www.w3.org/2000/svg">
<path d="M57.1428 21.7144H59.4285V51.4286H57.1428V21.7144Z" fill="#70C3FF"/>
<path d="M54.8572 21.7144H57.1429V51.4286H54.8572V21.7144Z" fill="#9CD6FF"/>
<path d="M32 45V57L13 45H32Z" fill="#9CD6FF"/>
<path d="M57.1428 52.5714L57.1428 48L61.7142 52.5714L57.1428 52.5714Z" fill="#9CD6FF"/>
<path d="M57.1428 52.5714L57.1428 48L52.5714 52.5714L57.1428 52.5714Z" fill="#C9EBFF"/>
<path d="M32 45V57L51 45H32Z" fill="#70C3FF"/>
<path d="M13 25H32V45H13V25Z" fill="#9CD6FF"/>
<path d="M57.1428 52.5715H61.7143V61.7144H57.1428V52.5715Z" fill="#9CD6FF"/>
<path d="M52.5714 52.5715H57.1428V61.7144H52.5714V52.5715Z" fill="#C9EBFF"/>
<path d="M32 25H51V45H32V25Z" fill="#70C3FF"/>
<path d="M32 20.5714V0L0 20.5714H32Z" fill="#C9EBFF"/>
<path d="M32 20.5714V41.1428L64 20.5714H32Z" fill="#9CD6FF"/>
<path d="M32 20.5714V41.1428L0 20.5714H32Z" fill="#C9EBFF"/>
<path d="M32 20.5714V0L64 20.5714H32Z" fill="#9CD6FF"/>
<path d="M40 20.5715C40 24.3586 36.4183 27.4286 32 27.4286C27.5817 27.4286 24 24.3586 24 20.5715C24 16.7844 27.5817 13.7144 32 13.7144C36.4183 13.7144 40 16.7844 40 20.5715Z" fill="#FFDC26"/>
<path d="M40 20.5715C40 24.3586 36.4183 27.4286 32 27.4286C32 23.4286 32 20.5715 32 20.5715C32 20.5715 32 18.2858 32 13.7144C36.4183 13.7144 40 16.7844 40 20.5715Z" fill="#FCCC24"/>
</svg>
