<svg width="60" height="60" viewBox="0 0 60 60" fill="none" xmlns="http://www.w3.org/2000/svg">
<g clip-path="url(#clip0)">
<path d="M59.8676 9.74716C60.0474 9.9363 60.0437 10.2342 59.8593 10.4188L51.8398 18.4443C51.1396 19.1447 50.6426 20.0219 50.4019 20.9824L47.918 30.8925C47.659 31.9255 47.1246 32.8687 46.3716 33.6218L42.3315 37.6618C41.3657 38.6277 39.7997 38.6277 38.8338 37.6618C37.868 36.6959 37.868 35.13 38.8338 34.1641L42.2758 30.7222L39.8274 33.1706L29.6093 43.3886C28.6434 44.3545 27.0775 44.3545 26.1116 43.3886C25.1458 42.4228 25.1458 40.8568 26.1116 39.8909L34.5808 31.4218L24.4047 41.5979C23.4564 42.5462 21.9113 42.6165 20.9299 41.7024C19.8996 40.7429 19.8779 39.1291 20.865 38.142L31.0831 27.9241L22.6139 36.3932C21.6481 37.3591 20.0821 37.3591 19.1162 36.3932C18.1504 35.4274 18.1504 33.8614 19.1162 32.8956L27.5854 24.4264L20.9104 31.1015C19.9824 32.0295 18.4771 32.1262 17.4899 31.2614C16.9255 30.767 16.6432 30.0825 16.6445 29.3979C16.6433 28.7648 16.8846 28.1316 17.3673 27.6491L26.4002 18.6161C27.1848 17.8316 28.0943 17.1827 29.0916 16.6963L36.1239 13.2656C37.1644 12.7581 38.1134 12.0811 38.9319 11.2625L50.0531 0.141765C50.2444 -0.0494846 50.5556 -0.0456175 50.7421 0.150437L59.8676 9.74716Z" fill="#FED2A4"/>
<path d="M59.8676 9.74716C60.0474 9.9363 60.0437 10.2342 59.8593 10.4188L51.8398 18.4443C51.1396 19.1447 50.6426 20.0219 50.4019 20.9824L47.918 30.8925C47.659 31.9255 47.1246 32.8687 46.3716 33.6218L42.3315 37.6618C41.3657 38.6277 39.7997 38.6277 38.8338 37.6618C37.868 36.6959 37.868 35.13 38.8338 34.1641L42.2758 30.7222L39.8274 33.1706L29.6093 43.3886C28.6434 44.3545 27.0775 44.3545 26.1116 43.3886C25.1458 42.4228 25.1458 40.8568 26.1116 39.8909L34.5808 31.4218L24.4047 41.5979C23.4564 42.5462 21.9113 42.6165 20.9299 41.7024C19.8996 40.7429 19.8779 39.1291 20.865 38.142L31.0831 27.9241L22.6139 36.3932C21.6481 37.3591 20.0821 37.3591 19.1162 36.3932C18.1504 35.4274 18.1504 33.8614 19.1162 32.8956L27.5854 24.4264L20.9104 31.1015C19.9824 32.0295 18.4771 32.1262 17.4899 31.2614C16.9255 30.767 16.6432 30.0825 16.6445 29.3979C16.6433 28.7648 16.8846 28.1316 17.3673 27.6491L26.4002 18.6161C27.1848 17.8316 28.0943 17.1827 29.0916 16.6963L36.1239 13.2656C37.1644 12.7581 38.1134 12.0811 38.9319 11.2625L50.0531 0.141765C50.2444 -0.0494846 50.5556 -0.0456175 50.7421 0.150437L59.8676 9.74716Z" fill="#FFE3C1"/>
<path d="M16.7252 30.0287C16.8409 30.471 17.0813 30.8873 17.4461 31.222C18.4066 32.1033 19.9884 32.0232 20.9102 31.1016L26.7109 25.3008C27.1939 24.8178 27.1939 24.0349 26.7109 23.552C26.228 23.0691 25.445 23.0691 24.962 23.552L19.1615 29.3526C18.5079 30.0061 17.5687 30.2451 16.7252 30.0287Z" fill="#F1D0A4"/>
<path d="M18.5005 35.3682C18.615 35.7432 18.8196 36.0966 19.1162 36.3932C20.0821 37.3591 21.6481 37.3591 22.6139 36.3932L30.2626 28.7444C30.7157 28.2913 30.7157 27.5567 30.2626 27.1036C29.8096 26.6506 29.0749 26.6506 28.6219 27.1036L20.9731 34.7525C20.3039 35.4217 19.3467 35.6263 18.5005 35.3682Z" fill="#F1D0A4"/>
<path d="M59.8676 9.74723L50.7422 0.150279C50.5906 -0.00921312 50.3573 -0.0392131 50.1722 0.0572322C50.3035 0.206529 50.4346 0.355826 50.5659 0.505123L50.0355 17.0532C49.3351 17.7535 48.8383 18.6307 48.5976 19.5912L46.1139 29.5012C45.8549 30.5342 45.3205 31.4775 44.5675 32.2305L40.5275 36.2705C39.9331 36.8649 39.1117 37.0921 38.3425 36.9549C38.4613 37.2104 38.6233 37.4508 38.8341 37.6616C39.8 38.6275 41.3659 38.6275 42.3318 37.6616L46.3718 33.6216C47.1249 32.8686 47.6593 31.9253 47.9182 30.8922L50.4019 20.9822C50.6426 20.0216 51.1396 19.1445 51.8398 18.4442L59.8593 10.4186C60.0436 10.2343 60.0474 9.93637 59.8676 9.74723Z" fill="#F1D0A4"/>
<path d="M20.3673 40.9219C20.4982 41.2073 20.6846 41.4738 20.9301 41.7023C21.8273 42.5379 23.1944 42.5484 24.1471 41.8199L33.8831 32.1171C34.2729 31.7286 34.2865 31.1017 33.9137 30.6967C33.5231 30.2724 32.8596 30.2536 32.4456 30.6552L22.6005 40.2066" fill="#F1D0A4"/>
<path d="M40.8328 30.033C40.4003 29.8264 39.8845 29.9149 39.5456 30.2539L27.8052 41.9975C27.2108 42.5919 26.3893 42.819 25.6202 42.6819C25.7391 42.9373 25.901 43.1778 26.1118 43.3886C27.0777 44.3545 28.6437 44.3545 29.6095 43.3886L41.1451 31.853C41.697 31.3012 41.5371 30.3694 40.8328 30.033Z" fill="#F1D0A4"/>
<path d="M4.0764 32.7856C6.59523 33.1393 7.07277 34.3758 10.4107 34.3758C14.3069 34.3758 14.3069 32.6919 18.2029 32.6919C22.0977 32.6919 22.0977 34.3758 25.9939 34.3758C29.89 34.3758 29.89 32.6919 33.786 32.6919C37.6821 32.6919 37.6821 34.3758 41.5782 34.3758C45.4755 34.3758 45.4755 32.6919 49.3716 32.6919C52.564 32.6919 53.1402 33.8226 55.3884 34.2316L56.1249 38.0533L52.1754 55.5217L45.9475 58.7116H9.89324L5.99816 53.7377L2.04871 32.8287L4.0764 32.7856Z" fill="#B5E0FF"/>
<mask id="mask0" mask-type="alpha" maskUnits="userSpaceOnUse" x="2" y="32" width="55" height="27">
<path d="M4.0764 32.7856C6.59523 33.1393 7.07277 34.3758 10.4107 34.3758C14.3069 34.3758 14.3069 32.6919 18.2029 32.6919C22.0977 32.6919 22.0977 34.3758 25.9939 34.3758C29.89 34.3758 29.89 32.6919 33.786 32.6919C37.6821 32.6919 37.6821 34.3758 41.5782 34.3758C45.4755 34.3758 45.4755 32.6919 49.3716 32.6919C52.564 32.6919 53.1402 33.8226 55.3884 34.2316L56.1249 38.0533L52.1754 55.5217L45.9475 58.7116H9.89324L5.99816 53.7377L2.04871 32.8287L4.0764 32.7856Z" fill="#9CD5FF"/>
</mask>
<g mask="url(#mask0)">
<path d="M31 57.5V25L68 32.5L57.5 59.5L24.9999 60.5C4.49994 60.5 -6.3052 57.5 31 57.5Z" fill="#9CD5FF"/>
</g>
<mask id="mask1" mask-type="alpha" maskUnits="userSpaceOnUse" x="18" y="32" width="21" height="13">
<path d="M19.1162 32.8954C18.1504 33.8613 18.1504 35.4274 19.1162 36.3931C20.0821 37.359 21.648 37.3591 22.6138 36.3932L20.865 38.142C19.878 39.1291 19.8996 40.7429 20.9299 41.7024C21.9113 42.6165 23.4564 42.5462 24.4047 41.5979L26.1116 39.8909C25.1458 40.8568 25.1458 42.4228 26.1116 43.3886C27.0775 44.3545 28.6435 44.3546 29.6093 43.3888L38.9694 34.0286C37.3513 33.5356 36.5448 32.6919 33.7862 32.6919C29.8901 32.6919 29.8901 34.3758 25.9941 34.3758C22.4917 34.3758 22.1362 33.0158 19.271 32.7406L19.1162 32.8954Z" fill="#C9EBFF"/>
</mask>
<g mask="url(#mask1)">
<path d="M19.1162 32.8954C18.1504 33.8613 18.1504 35.4274 19.1162 36.3931C20.0821 37.359 21.648 37.3591 22.6138 36.3932L20.865 38.142C19.878 39.1291 19.8996 40.7429 20.9299 41.7024C21.9113 42.6165 23.4564 42.5462 24.4047 41.5979L26.1116 39.8909C25.1458 40.8568 25.1458 42.4228 26.1116 43.3886C27.0775 44.3545 28.6435 44.3546 29.6093 43.3888L38.9694 34.0286C37.3513 33.5356 36.5448 32.6919 33.7862 32.6919C29.8901 32.6919 29.8901 34.3758 25.9941 34.3758C22.4917 34.3758 22.1362 33.0158 19.271 32.7406L19.1162 32.8954Z" fill="#C9EBFF"/>
<path d="M31 55.5V23L58.2859 26.5L56.2859 56H42.7859L31 55.5Z" fill="#B5E0FF"/>
</g>
<mask id="mask2" mask-type="alpha" maskUnits="userSpaceOnUse" x="25" y="33" width="14" height="12">
<path d="M38.9695 34.0286C38.113 33.7676 37.4838 33.4084 36.6721 33.1281L27.8051 41.9974C27.2108 42.5918 26.3893 42.8189 25.6202 42.6818C25.6202 42.6819 25.6203 42.6821 25.6203 42.6821C25.7422 42.9434 25.9074 43.1842 26.1118 43.3886C26.3709 43.6478 26.6676 43.8337 27.0036 43.9576C27.8976 44.2875 28.9281 44.0713 29.6095 43.3886L38.9695 34.0286Z" fill="#B5E0FF"/>
</mask>
<g mask="url(#mask2)">
<path d="M38.9695 34.0286C38.113 33.7676 37.4838 33.4084 36.6721 33.1281L27.8051 41.9974C27.2108 42.5918 26.3893 42.8189 25.6202 42.6818C25.6202 42.6819 25.6203 42.6821 25.6203 42.6821C25.7422 42.9434 25.9074 43.1842 26.1118 43.3886C26.3709 43.6478 26.6676 43.8337 27.0036 43.9576C27.8976 44.2875 28.9281 44.0713 29.6095 43.3886L38.9695 34.0286Z" fill="#9CD5FF"/>
<path d="M30.9999 59.4999V26.9999L58.2858 30.4999L56.2858 59.9999H42.7858L30.9999 59.4999Z" fill="#70C3FF"/>
</g>
<path d="M33.2958 32.7025C31.2625 32.7757 30.5197 33.3169 29.1762 33.8305C29.1742 33.8313 29.1724 33.832 29.1702 33.8328C27.7219 34.915 21.992 41.8499 20.3671 40.9219C20.4981 41.2075 20.6845 41.4738 20.93 41.7023C21.9113 42.6164 23.4564 42.5461 24.4047 41.5978L26.1117 39.8909C25.8646 40.138 30.7176 35.3783 33.2958 32.7025Z" fill="#9CD5FF"/>
<path d="M19.5043 36.7102C20.4643 37.344 21.7688 37.2383 22.6138 36.3933L22.6135 36.3936C22.6136 36.3935 22.6138 36.3934 22.614 36.3933L24.7041 34.3031C23.5956 34.1693 22.8726 33.8688 22.163 33.5626L20.9732 34.7524C20.304 35.4217 19.3469 35.6263 18.5007 35.3681C18.5008 35.3687 18.501 35.3692 18.5013 35.3698C18.5185 35.4263 18.5384 35.4819 18.5599 35.5372C18.6834 35.8569 18.8737 36.1499 19.1164 36.3932V36.3933C19.238 36.515 19.3649 36.6182 19.5043 36.7102Z" fill="#9CD5FF"/>
<path d="M46.9145 32.9947C45.1924 33.4794 44.4227 34.3759 41.5785 34.3759C40.4411 34.3759 39.6367 34.2318 38.9695 34.0286L38.8339 34.1642C37.8681 35.1301 37.8681 36.6961 38.8339 37.6619C39.7998 38.6278 41.3658 38.6278 42.3316 37.6619L46.3717 33.6219C46.5681 33.4252 46.7488 33.2152 46.9145 32.9947Z" fill="#B5E0FF"/>
<path d="M46.6567 33.3147C46.7463 33.2109 46.8324 33.1041 46.9145 32.9947C46.6121 33.08 46.3163 33.1852 46.0254 33.3025C44.9942 33.7183 44.1504 34.2152 42.4542 34.3437L40.5273 36.2707C39.9331 36.865 39.1116 37.0923 38.3424 36.955V36.9552C38.4612 37.2107 38.6231 37.4511 38.834 37.6619C39.7998 38.6278 41.3657 38.6278 42.3315 37.662L42.3317 37.6619L45.1286 34.865L46.3717 33.6219C46.4699 33.5238 46.5641 33.4222 46.6545 33.3175C46.6552 33.3166 46.6559 33.3157 46.6567 33.3147Z" fill="#70C3FF"/>
<path d="M49.0176 59.9994H10.7649C8.04139 59.9994 5.72857 58.135 5.14029 55.4654L0.0456831 32.3434C-0.183301 31.304 0.470488 30.2748 1.50596 30.0449C2.54096 29.8149 3.56646 30.4712 3.79557 31.5107L8.89006 54.6328C9.08623 55.5228 9.85721 56.1442 10.7649 56.1442H49.0176C49.9255 56.1442 50.6965 55.5228 50.8925 54.6328L55.987 31.5108C56.216 30.4715 57.2403 29.8149 58.2766 30.045C59.3121 30.2749 59.9659 31.304 59.7369 32.3435L54.6423 55.4656C54.054 58.135 51.7412 59.9994 49.0176 59.9994Z" fill="#70C3FF"/>
<path d="M58.2768 30.045C57.2406 29.8149 56.2162 30.4715 55.9871 31.5108L50.8927 54.6328C50.779 55.1485 50.4716 55.573 50.057 55.8397C49.0024 57.2903 47.3058 58.1952 45.4091 58.1952H7.15641C6.9491 58.1952 6.74437 58.1831 6.54234 58.1619C7.59961 59.3065 9.1057 59.9994 10.765 59.9994H49.0177C51.7412 59.9994 54.054 58.135 54.6423 55.4655L59.7369 32.3434C59.966 31.304 59.3122 30.2748 58.2768 30.045Z" fill="#48A7FF"/>
<path d="M14.6049 23.2479C15.4906 20.9958 14.3828 18.4521 12.1306 17.5664C9.87844 16.6807 7.33472 17.7885 6.44906 20.0407C5.5634 22.2929 6.67118 24.8366 8.92335 25.7222C11.1755 26.6079 13.7192 25.5001 14.6049 23.2479Z" fill="#FFDC26"/>
<path d="M7.86329 10.6693C9.77668 10.944 11.5504 9.61547 11.825 7.70208C12.0996 5.78869 10.7712 4.01496 8.85776 3.74034C6.94437 3.46572 5.17064 4.79421 4.89603 6.7076C4.62141 8.62099 5.9499 10.3947 7.86329 10.6693Z" fill="#FFDC26"/>
<path d="M25.4699 11.1758C28.2033 11.5681 30.7372 9.67027 31.1295 6.93686C31.5219 4.20344 29.624 1.66954 26.8906 1.27723C24.1572 0.884924 21.6233 2.78276 21.231 5.51618C20.8387 8.24959 22.7365 10.7835 25.4699 11.1758Z" fill="#FFDC26"/>
</g>
<defs>
<clipPath id="clip0">
<rect width="60" height="60" fill="white"/>
</clipPath>
</defs>
</svg>
