<svg width="64" height="64" viewBox="0 0 64 64" fill="none" xmlns="http://www.w3.org/2000/svg">
<path d="M2 9C2 7.89543 2.89543 7 4 7H60C61.1046 7 62 7.89543 62 9V45C62 46.1046 61.1046 47 60 47H4C2.89543 47 2 46.1046 2 45V9Z" fill="#C9EBFF"/>
<path d="M8 13C8 12.4477 8.44772 12 9 12H13C13.5523 12 14 12.4477 14 13V37C14 37.5523 13.5523 38 13 38H9C8.44772 38 8 37.5523 8 37V13Z" fill="#9CD6FF"/>
<path d="M2 41H62V45C62 46.1046 61.1046 47 60 47H4C2.89543 47 2 46.1046 2 45V41Z" fill="#B5E0FF"/>
<path d="M26 47H38V55H26V47Z" fill="#9CD6FF"/>
<path d="M26 47H38V49H26V47Z" fill="#70C3FF"/>
<mask id="path-6-inside-1" fill="white">
<path fill-rule="evenodd" clip-rule="evenodd" d="M18 55C17.4477 55 17 55.4477 17 56C17 56.5523 17.4477 57 18 57H46C46.5523 57 47 56.5523 47 56C47 55.4477 46.5523 55 46 55H18Z"/>
</mask>
<path fill-rule="evenodd" clip-rule="evenodd" d="M18 55C17.4477 55 17 55.4477 17 56C17 56.5523 17.4477 57 18 57H46C46.5523 57 47 56.5523 47 56C47 55.4477 46.5523 55 46 55H18Z" fill="#70C3FF"/>
<path d="M19 56C19 56.5523 18.5523 57 18 57V53C16.3431 53 15 54.3431 15 56H19ZM18 55C18.5523 55 19 55.4477 19 56H15C15 57.6569 16.3431 59 18 59V55ZM46 55H18V59H46V55ZM45 56C45 55.4477 45.4477 55 46 55V59C47.6569 59 49 57.6569 49 56H45ZM46 57C45.4477 57 45 56.5523 45 56H49C49 54.3431 47.6569 53 46 53V57ZM18 57H46V53H18V57Z" fill="#70C3FF" mask="url(#path-6-inside-1)"/>
<mask id="path-8-inside-2" fill="white">
<path fill-rule="evenodd" clip-rule="evenodd" d="M60 9H4V45H60V9ZM4 7C2.89543 7 2 7.89543 2 9V45C2 46.1046 2.89543 47 4 47H60C61.1046 47 62 46.1046 62 45V9C62 7.89543 61.1046 7 60 7H4Z"/>
</mask>
<path fill-rule="evenodd" clip-rule="evenodd" d="M60 9H4V45H60V9ZM4 7C2.89543 7 2 7.89543 2 9V45C2 46.1046 2.89543 47 4 47H60C61.1046 47 62 46.1046 62 45V9C62 7.89543 61.1046 7 60 7H4Z" fill="#B5E0FF"/>
<path d="M4 9V7H2V9H4ZM60 9H62V7H60V9ZM4 45H2V47H4V45ZM60 45V47H62V45H60ZM4 11H60V7H4V11ZM6 45V9H2V45H6ZM60 43H4V47H60V43ZM58 9V45H62V9H58ZM4 9V9V5C1.79086 5 0 6.79086 0 9H4ZM4 45V9H0V45H4ZM4 45H4H0C0 47.2091 1.79086 49 4 49V45ZM60 45H4V49H60V45ZM60 45V49C62.2091 49 64 47.2091 64 45H60ZM60 9V45H64V9H60ZM60 9H64C64 6.79086 62.2091 5 60 5V9ZM4 9H60V5H4V9Z" fill="#B5E0FF" mask="url(#path-8-inside-2)"/>
<path fill-rule="evenodd" clip-rule="evenodd" d="M25.9833 24.0757C25.0548 25.1958 23.7885 26 22 26C21.4477 26 21 25.5523 21 25C21 24.4477 21.4477 24 22 24C23.0819 24 23.8178 23.5542 24.4435 22.7993C25.1133 21.9913 25.6145 20.8792 26.1644 19.604C26.1921 19.5398 26.2199 19.4751 26.248 19.4099C26.7476 18.249 27.3044 16.955 28.0752 15.9528C28.9321 14.8389 30.1172 14 31.8293 14C33.5246 14 34.7697 14.8217 35.7217 15.901C36.6277 16.928 37.3357 18.266 37.9745 19.4731L38.0058 19.5322C38.682 20.8099 39.2888 21.9448 40.022 22.776C40.7239 23.5717 41.4636 24 42.4146 24C43.3699 24 44.1326 23.5675 44.8617 22.765C45.6185 21.932 46.255 20.7932 46.9483 19.5214C46.9766 19.4695 47.005 19.4174 47.0334 19.3651C47.6745 18.1879 48.3758 16.9002 49.2355 15.9078C50.1586 14.8422 51.364 14 53 14C53.5523 14 54 14.4477 54 15C54 15.5523 53.5523 16 53 16C52.1484 16 51.4484 16.4078 50.7472 17.2172C50.0321 18.0428 49.4221 19.1619 48.7367 20.4194L48.7043 20.4786C48.0348 21.7068 47.2886 23.068 46.3419 24.11C45.3674 25.1825 44.1057 26 42.4146 26C40.7193 26 39.4742 25.1783 38.5222 24.099C37.6162 23.072 36.9082 21.734 36.2694 20.5269L36.2381 20.4678C35.5619 19.1901 34.9551 18.0552 34.2219 17.224C33.52 16.4283 32.7803 16 31.8293 16C30.895 16 30.2459 16.4111 29.6605 17.1722C29.0468 17.9701 28.5795 19.054 28.039 20.3077C28.0263 20.337 28.0136 20.3665 28.0009 20.396C27.4727 21.6208 26.8677 23.0087 25.9833 24.0757Z" fill="#FFDC26" stroke="#FFDC26" stroke-width="2" stroke-linecap="round"/>
<path d="M8 13C8 12.4477 8.44772 12 9 12H13C13.5523 12 14 12.4477 14 13V20H8V13Z" fill="#70C3FF"/>
<path d="M26.5 35C27.3284 35 28 35.6716 28 36.5C28 37.3284 27.3284 38 26.5 38L21.5 38C20.6716 38 20 37.3284 20 36.5C20 35.6716 20.6716 35 21.5 35L26.5 35Z" fill="#9CD6FF"/>
<path d="M47.5 35C48.3284 35 49 35.6716 49 36.5C49 37.3284 48.3284 38 47.5 38L42.5 38C41.6716 38 41 37.3284 41 36.5C41 35.6716 41.6716 35 42.5 35L47.5 35Z" fill="#9CD6FF"/>
<path d="M32.5 30C33.3284 30 34 30.6716 34 31.5C34 32.3284 33.3284 33 32.5 33L21.5 33C20.6716 33 20 32.3284 20 31.5C20 30.6716 20.6716 30 21.5 30L32.5 30Z" fill="#70C3FF"/>
<path d="M53.5 30C54.3284 30 55 30.6716 55 31.5C55 32.3284 54.3284 33 53.5 33L42.5 33C41.6716 33 41 32.3284 41 31.5C41 30.6716 41.6716 30 42.5 30L53.5 30Z" fill="#70C3FF"/>
<path d="M24 25C24 26.1046 23.1046 27 22 27C20.8954 27 20 26.1046 20 25C20 23.8954 20.8954 23 22 23C23.1046 23 24 23.8954 24 25Z" fill="#E8BD28"/>
<path d="M34 15C34 16.1046 33.1046 17 32 17C30.8954 17 30 16.1046 30 15C30 13.8954 30.8954 13 32 13C33.1046 13 34 13.8954 34 15Z" fill="#E8BD28"/>
<path d="M45 25C45 26.1046 44.1046 27 43 27C41.8954 27 41 26.1046 41 25C41 23.8954 41.8954 23 43 23C44.1046 23 45 23.8954 45 25Z" fill="#E8BD28"/>
<path d="M55 15C55 16.1046 54.1046 17 53 17C51.8954 17 51 16.1046 51 15C51 13.8954 51.8954 13 53 13C54.1046 13 55 13.8954 55 15Z" fill="#E8BD28"/>
</svg>
