<svg width="64" height="64" viewBox="0 0 64 64" fill="none" xmlns="http://www.w3.org/2000/svg">
<path d="M4 34H60V60H4V34Z" fill="#C9EBFF"/>
<path d="M32 34H60V60H32V34Z" fill="#B5E0FF"/>
<path d="M31 46.5H33V61.5H31V46.5Z" fill="#70C3FF"/>
<path d="M24 47C24 46.4477 24.4477 46 25 46H39C39.5523 46 40 46.4477 40 47C40 47.5523 39.5523 48 39 48H25C24.4477 48 24 47.5523 24 47Z" fill="#70C3FF"/>
<path d="M30 54C30 53.4477 30.4477 53 31 53H33C33.5523 53 34 53.4477 34 54C34 54.5523 33.5523 55 33 55H31C30.4477 55 30 54.5523 30 54Z" fill="#70C3FF"/>
<path d="M36 46.5H38V61.5H36V46.5Z" fill="#70C3FF"/>
<path d="M26 46.5H28V61.5H26V46.5Z" fill="#70C3FF"/>
<path d="M7.71271 20.007C7.89027 19.6937 8.22259 19.5 8.58273 19.5H55.4173C55.7774 19.5 56.1097 19.6937 56.2873 20.007L63.654 33.007C64.0317 33.6736 63.5502 34.5 62.7839 34.5H1.21607C0.44984 34.5 -0.0317162 33.6736 0.346043 33.007L7.71271 20.007Z" fill="#9CD6FF"/>
<path d="M32 20.5C32 19.9477 32.4477 19.5 33 19.5H55.4173C55.7774 19.5 56.1097 19.6937 56.2873 20.007L63.654 33.007C64.0317 33.6736 63.5502 34.5 62.7839 34.5H33C32.4477 34.5 32 34.0523 32 33.5V20.5Z" fill="#70C3FF"/>
<path d="M0 60.5C0 59.9477 0.447715 59.5 1 59.5H63C63.5523 59.5 64 59.9477 64 60.5C64 61.0523 63.5523 61.5 63 61.5H1C0.447715 61.5 0 61.0523 0 60.5Z" fill="#9CD6FF"/>
<path opacity="0.7" d="M8 49C8 48.4477 8.44772 48 9 48H13C13.5523 48 14 48.4477 14 49V55C14 55.5523 13.5523 56 13 56H9C8.44772 56 8 55.5523 8 55V49Z" fill="#9CD6FF"/>
<path opacity="0.7" d="M16 49C16 48.4477 16.4477 48 17 48H21C21.5523 48 22 48.4477 22 49V55C22 55.5523 21.5523 56 21 56H17C16.4477 56 16 55.5523 16 55V49Z" fill="#9CD6FF"/>
<path opacity="0.7" d="M8 41C8 39.3431 9.34315 38 11 38C12.6569 38 14 39.3431 14 41V45C14 45.5523 13.5523 46 13 46H9C8.44772 46 8 45.5523 8 45V41Z" fill="#9CD6FF"/>
<path opacity="0.7" d="M16 41C16 39.3431 17.3431 38 19 38C20.6569 38 22 39.3431 22 41V45C22 45.5523 21.5523 46 21 46H17C16.4477 46 16 45.5523 16 45V41Z" fill="#9CD6FF"/>
<path opacity="0.5" d="M42 49C42 48.4477 42.4477 48 43 48H47C47.5523 48 48 48.4477 48 49V55C48 55.5523 47.5523 56 47 56H43C42.4477 56 42 55.5523 42 55V49Z" fill="#70C3FF"/>
<path opacity="0.5" d="M50 49C50 48.4477 50.4477 48 51 48H55C55.5523 48 56 48.4477 56 49V55C56 55.5523 55.5523 56 55 56H51C50.4477 56 50 55.5523 50 55V49Z" fill="#70C3FF"/>
<path opacity="0.5" d="M42 41C42 39.3431 43.3431 38 45 38C46.6569 38 48 39.3431 48 41V45C48 45.5523 47.5523 46 47 46H43C42.4477 46 42 45.5523 42 45V41Z" fill="#70C3FF"/>
<path opacity="0.5" d="M50 41C50 39.3431 51.3431 38 53 38C54.6569 38 56 39.3431 56 41V45C56 45.5523 55.5523 46 55 46H51C50.4477 46 50 45.5523 50 45V41Z" fill="#70C3FF"/>
<path d="M30.5052 18.1818C31.3008 17.2867 32.6992 17.2867 33.4948 18.1818L48 34.5001H16L30.5052 18.1818Z" fill="#C9EBFF"/>
<path d="M32 16.5L48 34.5H32L32 16.5Z" fill="#B5E0FF"/>
<path d="M31 5C31 4.44772 31.4477 4 32 4C32.5523 4 33 4.44772 33 5V17C33 17.5523 32.5523 18 32 18C31.4477 18 31 17.5523 31 17V5Z" fill="#48A7FF"/>
<path d="M33 6L42.7962 6C43.6554 6 44.1146 7.01192 43.5488 7.6585L41.5 10L43.5488 12.3415C44.1146 12.9881 43.6554 14 42.7962 14H33V6Z" fill="#FFDC26"/>
<mask id="path-23-inside-1" fill="white">
<path fill-rule="evenodd" clip-rule="evenodd" d="M29.7578 17.5174C30.9512 16.1749 33.0489 16.1749 34.2422 17.5174L48.7474 33.8357C49.1143 34.2485 49.0772 34.8806 48.6644 35.2475C48.2516 35.6144 47.6195 35.5772 47.2526 35.1645L32.7474 18.8461C32.3496 18.3986 31.6504 18.3986 31.2526 18.8461L16.7474 35.1645C16.3805 35.5772 15.7484 35.6144 15.3356 35.2475C14.9229 34.8806 14.8857 34.2485 15.2526 33.8357L29.7578 17.5174Z"/>
</mask>
<path fill-rule="evenodd" clip-rule="evenodd" d="M29.7578 17.5174C30.9512 16.1749 33.0489 16.1749 34.2422 17.5174L48.7474 33.8357C49.1143 34.2485 49.0772 34.8806 48.6644 35.2475C48.2516 35.6144 47.6195 35.5772 47.2526 35.1645L32.7474 18.8461C32.3496 18.3986 31.6504 18.3986 31.2526 18.8461L16.7474 35.1645C16.3805 35.5772 15.7484 35.6144 15.3356 35.2475C14.9229 34.8806 14.8857 34.2485 15.2526 33.8357L29.7578 17.5174Z" fill="#70C3FF"/>
<path d="M34.2422 17.5174L32.7474 18.8461L32.7474 18.8461L34.2422 17.5174ZM29.7578 17.5174L31.2526 18.8461V18.8461L29.7578 17.5174ZM48.7474 33.8357L50.2422 32.507V32.507L48.7474 33.8357ZM48.6644 35.2475L49.9931 36.7423L49.9931 36.7423L48.6644 35.2475ZM47.2526 35.1645L45.7578 36.4932V36.4932L47.2526 35.1645ZM32.7474 18.8461L34.2422 17.5174V17.5174L32.7474 18.8461ZM31.2526 18.8461L29.7578 17.5174L29.7578 17.5174L31.2526 18.8461ZM16.7474 35.1645L18.2422 36.4932L16.7474 35.1645ZM15.3356 35.2475L14.0069 36.7423L14.0069 36.7423L15.3356 35.2475ZM15.2526 33.8357L16.7474 35.1645H16.7474L15.2526 33.8357ZM35.7371 16.1887C33.7481 13.9511 30.2519 13.9511 28.263 16.1887L31.2526 18.8461C31.6504 18.3986 32.3496 18.3986 32.7474 18.8461L35.7371 16.1887ZM50.2422 32.507L35.7371 16.1887L32.7474 18.8461L47.2526 35.1645L50.2422 32.507ZM49.9931 36.7423C51.2314 35.6416 51.343 33.7454 50.2422 32.507L47.2526 35.1645C46.8857 34.7517 46.9229 34.1196 47.3356 33.7527L49.9931 36.7423ZM45.7578 36.4932C46.8585 37.7315 48.7548 37.8431 49.9931 36.7423L47.3357 33.7527C47.7484 33.3858 48.3805 33.423 48.7474 33.8357L45.7578 36.4932ZM31.2526 20.1749L45.7578 36.4932L48.7474 33.8357L34.2422 17.5174L31.2526 20.1749ZM32.7474 20.1749C32.3496 20.6224 31.6504 20.6224 31.2526 20.1749L34.2422 17.5174C33.0489 16.1749 30.9512 16.1749 29.7578 17.5174L32.7474 20.1749ZM18.2422 36.4932L32.7474 20.1749L29.7578 17.5174L15.2526 33.8357L18.2422 36.4932ZM14.0069 36.7423C15.2453 37.8431 17.1415 37.7315 18.2422 36.4932L15.2526 33.8357C15.6195 33.423 16.2516 33.3858 16.6644 33.7527L14.0069 36.7423ZM13.7578 32.507C12.657 33.7454 12.7686 35.6416 14.0069 36.7423L16.6644 33.7527C17.0772 34.1196 17.1143 34.7517 16.7474 35.1645L13.7578 32.507ZM28.263 16.1887L13.7578 32.507L16.7474 35.1645L31.2526 18.8461L28.263 16.1887Z" fill="#70C3FF" mask="url(#path-23-inside-1)"/>
<path d="M39 32.5C39 36.366 35.866 39.5 32 39.5C28.134 39.5 25 36.366 25 32.5C25 28.634 28.134 25.5 32 25.5C35.866 25.5 39 28.634 39 32.5Z" fill="#9CD6FF"/>
<path d="M39 32.5C39 36.366 35.866 39.5 32 39.5C32 38 32.0001 36.866 32.0001 33C32.0001 29.134 32 27 32 25.5C35.866 25.5 39 28.634 39 32.5Z" fill="#70C3FF"/>
<path d="M37 32.5C37 35.2614 34.7614 37.5 32 37.5C29.2386 37.5 27 35.2614 27 32.5C27 29.7386 29.2386 27.5 32 27.5C34.7614 27.5 37 29.7386 37 32.5Z" fill="#C9EBFF"/>
<path d="M37 32.5C37 35.2614 34.7614 37.5 32 37.5C32 35.5 32 32.5 32 32.5C32 32.5 32 29 32 27.5C34.7614 27.5 37 29.7386 37 32.5Z" fill="#B5E0FF"/>
<path d="M31 29.5C31 28.9477 31.4477 28.5 32 28.5C32.5523 28.5 33 28.9477 33 29.5V32.5C33 33.0523 32.5523 33.5 32 33.5C31.4477 33.5 31 33.0523 31 32.5V29.5Z" fill="#48A7FF"/>
<path d="M29 33.5C28.4477 33.5 28 33.0523 28 32.5C28 31.9477 28.4477 31.5 29 31.5L32 31.5C32.5523 31.5 33 31.9477 33 32.5C33 33.0523 32.5523 33.5 32 33.5L29 33.5Z" fill="#48A7FF"/>
<g clip-path="url(#clip0)">
<mask id="mask0" mask-type="alpha" maskUnits="userSpaceOnUse" x="33" y="6" width="11" height="8">
<path d="M33 6L42.7962 6C43.6554 6 44.1146 7.01192 43.5488 7.6585L41.5 10L43.5488 12.3415C44.1146 12.9881 43.6554 14 42.7962 14H33V6Z" fill="#FFDC26"/>
</mask>
<g mask="url(#mask0)">
<path d="M33 10H45V14H33V10Z" fill="#FCCC24"/>
</g>
</g>
<path fill-rule="evenodd" clip-rule="evenodd" d="M32 18.5105C32.2743 18.5105 32.5485 18.6224 32.7474 18.8461L47.2526 35.1645C47.6195 35.5772 48.2516 35.6144 48.6644 35.2475C49.0771 34.8806 49.1143 34.2485 48.7474 33.8357L34.2422 17.5174C33.6455 16.8461 32.8228 16.5105 32 16.5105V18.5105Z" fill="#48A7FF"/>
<defs>
<clipPath id="clip0">
<rect width="12" height="4" fill="white" transform="translate(33 10)"/>
</clipPath>
</defs>
</svg>
